# xmcd
#
# Track frame offsets: 
#        150
#        12585
#        29280
#        53325
#        78398
#        96106
#        118381
#        135781
#        147669
#        167079
#        184404
#        202284
#        215814
#        226817
#        239522
#        258497
#        272080
#        289383
#        302996
#        317059
#
# Disc length: 4475 seconds
#
# Revision: 0
# Processed by: cddbd v1.5.2PL0 Copyright (c) Steve Scherf et al.
# Submitted via: ExactAudioCopy v1.3
#
DISCID=36117914
DTITLE=Various Artist - TSP Country and Americana Vol 173
DYEAR=2017
DGENRE=Country
TTITLE0=David McLaughlin - Love In Your Eyes
TTITLE1=Paul Harper - Country Boy
TTITLE2=T J Doyle - Unconditional (remix)
TTITLE3=Vanessa Delaine - Everything To Me (We Were Wild and Free)
TTITLE4=Cody Forest - Tennessee
TTITLE5=Mike Contoni - Here I Go Again
TTITLE6=Cathy Hutch - Lullaby
TTITLE7=Flat Mountain Boys - Porchstep Lament
TTITLE8=Randy Cherkis - Open Your Heart
TTITLE9=Tony Clarke - One More Christmas
TTITLE10=Dan Stevens - The Proposal
TTITLE11=Kevin Beadles - All Bleeding Comes To An End
TTITLE12=Dan Stevens - When Jesus Sang His Songs For Us
TTITLE13=Anthony Stells - The Day
TTITLE14=Ray William Roldan - Forever More
TTITLE15=Darnell Miller - Every Night You Make My Day
TTITLE16=Slim Andrews - In My Old Pickup Truck
TTITLE17=Ronnie Chase - The Night Is Full Of Romance
TTITLE18=Claude Reed - You Aint Got Nobody
TTITLE19=Jim Flynn (demo by Rick Vazniz) - You're Beyond Words
EXTD=
EXTT0=
EXTT1=
EXTT2=
EXTT3=
EXTT4=
EXTT5=
EXTT6=
EXTT7=
EXTT8=
EXTT9=
EXTT10=
EXTT11=
EXTT12=
EXTT13=
EXTT14=
EXTT15=
EXTT16=
EXTT17=
EXTT18=
EXTT19=
PLAYORDER=
